# xmcd
#
# Track frame offsets: 
#        150
#        16376
#        39472
#        57941
#        78960
#        100736
#        119695
#        141613
#        166038
#        186318
#        204007
#        222582
#        242095
#        260201
#        278357
#
# Disc length: 4034 seconds
#
# Revision: 0
# Processed by: cddbd v1.5.2PL0 Copyright (c) Steve Scherf et al.
# Submitted via: ExactAudioCopy v1.0b3
#
DISCID=d70fc00f
DTITLE=群星 - stereo情解毒HI-FI灵魂B
DYEAR=2013
DGENRE=stereo
TTITLE0=光阴的故事
TTITLE1=男人再晚也别忘了回家
TTITLE2=路人
TTITLE3=离不开你
TTITLE4=风吹麦浪
TTITLE5=想念你
TTITLE6=如果没有你
TTITLE7=光阴
TTITLE8=恋人爱人离开我的人
TTITLE9=有点舍不得
TTITLE10=好男人都死到哪儿去了
TTITLE11=火火的姑娘
TTITLE12=告诉我亲爱的你
TTITLE13=爱人别走
TTITLE14=存在
EXTD=
EXTT0=
EXTT1=
EXTT2=
EXTT3=
EXTT4=
EXTT5=
EXTT6=
EXTT7=
EXTT8=
EXTT9=
EXTT10=
EXTT11=
EXTT12=
EXTT13=
EXTT14=
PLAYORDER=
